<svg width="48" height="48" viewBox="0 0 48 48" fill="none" xmlns="http://www.w3.org/2000/svg">
<g clip-path="url(#clip0)" filter="url(#filter0_d)">
<path d="M43.3152 7.15454C42.9511 3.74329 40.257 1.04858 36.8455 0.684814C28.2902 -0.228271 19.7098 -0.228271 11.1548 0.684814C7.74329 1.04889 5.04889 3.74329 4.68481 7.15454C3.77173 15.7095 3.77173 24.2902 4.68481 32.8452C5.04889 36.2567 7.74329 38.9511 11.1545 39.3152C19.7095 40.2283 28.2902 40.2283 36.8455 39.3152C40.257 38.9511 42.9511 36.2567 43.3152 32.8452C44.2283 24.2902 44.2283 15.7098 43.3152 7.15454Z" fill="url(#paint0_radial)"/>
<path d="M41.1396 8.60117C40.8167 5.57413 38.426 3.18307 35.3987 2.85989C27.8071 2.04996 20.193 2.04996 12.6014 2.85989C9.57437 3.18307 7.18332 5.57413 6.86014 8.60117C6.0502 16.1927 6.0502 23.8069 6.86014 31.3981C7.18332 34.4254 9.57437 36.8165 12.6014 37.1394C20.193 37.9496 27.8071 37.9496 35.3983 37.1394C38.4257 36.8165 40.8167 34.4254 41.1396 31.3981C41.9499 23.8069 41.9499 16.1927 41.1396 8.60117Z" fill="url(#paint1_linear)"/>
<path d="M4.59937 32.0161C4.62683 32.2926 4.65521 32.5691 4.68481 32.8456C5.04889 36.2568 7.74329 38.9512 11.1548 39.3153C19.7098 40.2284 28.2905 40.2284 36.8455 39.3153C40.257 38.9512 42.9511 36.2568 43.3152 32.8456C43.3448 32.5691 43.3732 32.2926 43.4009 32.0161H4.59937Z" fill="url(#paint2_linear)"/>
<path d="M43.3152 32.8453C43.8059 28.2484 44.0323 23.6442 43.9957 19.0407L34.8527 9.89759C33.7104 8.59357 32.042 7.77967 30.0815 7.70917C26.0499 7.56391 22.0054 7.57123 17.9731 7.70978C14.6241 7.82514 12.2822 10.0761 11.6816 13.3845C11.5757 13.9686 11.5122 14.5604 11.4289 15.1487V24.8478C11.475 25.1622 11.5427 25.475 11.5638 25.7911C11.6981 27.8035 12.5251 29.5271 13.8492 30.6932L23.1534 39.9971C27.7195 40.0291 32.2858 39.8021 36.8455 39.3153C40.257 38.9512 42.9511 36.2568 43.3152 32.8453Z" fill="url(#paint3_linear)"/>
<path d="M43.3152 32.8457C42.9514 36.2567 40.2564 38.9517 36.8455 39.3154C32.2864 39.8019 27.7192 40.0292 23.1537 39.9972L13.8636 30.707C14.9406 31.6497 16.3444 32.2238 17.9734 32.2851C22.0048 32.4365 26.0502 32.4325 30.0815 32.2872C33.7278 32.1554 36.3663 29.4567 36.4802 25.8105C36.6016 21.939 36.6016 18.0575 36.4802 14.186C36.4283 12.5039 35.8378 11.0238 34.8588 9.90381L43.996 19.0411C44.032 23.644 43.8056 28.2488 43.3152 32.8457Z" fill="url(#paint4_linear)"/>
<path d="M28.7198 15.6688C27.5486 14.3934 25.868 13.5933 24 13.5933C20.4618 13.5933 17.5931 16.4619 17.5931 20.0001C17.5931 21.8681 18.3933 23.5487 19.6686 24.72L34.4919 39.5433C35.2766 39.4749 36.0612 39.3989 36.8452 39.3153C40.2567 38.9512 42.9511 36.2568 43.3152 32.8453C43.3988 32.0613 43.4748 31.2767 43.5432 30.4921L28.7198 15.6688Z" fill="url(#paint5_linear)"/>
<path d="M43.9225 24.3089L31.9926 12.3793C31.7142 12.014 31.2757 11.7769 30.781 11.7769C29.9393 11.7769 29.2567 12.4592 29.2567 13.3012C29.2567 13.7959 29.4938 14.2344 29.8591 14.5128L43.7092 28.3632C43.8032 27.0121 43.8743 25.6605 43.9225 24.3089Z" fill="url(#paint6_linear)"/>
<path d="M11.4289 15.1487C11.5122 14.5604 11.5757 13.9686 11.6816 13.3845C12.2819 10.0761 14.6241 7.82514 17.9731 7.70978C22.0054 7.57123 26.0499 7.56391 30.0815 7.70917C33.7266 7.8404 36.3663 10.5394 36.4802 14.1856C36.6013 18.0574 36.6013 21.9386 36.4802 25.8104C36.3663 29.4566 33.7275 32.1553 30.0818 32.2868C26.0502 32.4324 22.0048 32.436 17.9734 32.2847C14.3278 32.1476 11.8076 29.4426 11.5638 25.7908C11.5427 25.475 11.475 25.1619 11.4289 24.8475C11.4289 21.6145 11.4289 18.3815 11.4289 15.1487ZM24.0034 30.1259C25.8484 30.1259 27.6954 30.1811 29.538 30.113C32.4271 30.0059 34.2042 28.2817 34.2716 25.3953C34.3552 21.7988 34.3552 18.1975 34.2716 14.6007C34.2042 11.7149 32.4259 9.95038 29.538 9.88904C25.8726 9.81153 22.2031 9.81214 18.5377 9.88904C15.6718 9.94916 13.8895 11.678 13.8117 14.532C13.7128 18.174 13.7128 21.8223 13.8117 25.4643C13.8895 28.318 15.6718 30.0068 18.538 30.113C20.3574 30.1808 22.1815 30.1259 24.0034 30.1259Z" fill="url(#paint7_linear)"/>
<path d="M11.4289 15.1487C11.5122 14.5604 11.5757 13.9686 11.6816 13.3845C12.2819 10.0761 14.6241 7.82514 17.9731 7.70978C22.0054 7.57123 26.0499 7.56391 30.0815 7.70917C33.7266 7.8404 36.3663 10.5394 36.4802 14.1856C36.6013 18.0574 36.6013 21.9386 36.4802 25.8104C36.3663 29.4566 33.7275 32.1553 30.0818 32.2868C26.0502 32.4324 22.0048 32.436 17.9734 32.2847C14.3278 32.1476 11.8076 29.4426 11.5638 25.7908C11.5427 25.475 11.475 25.1619 11.4289 24.8475C11.4289 21.6145 11.4289 18.3815 11.4289 15.1487ZM24.0034 30.1259C25.8484 30.1259 27.6954 30.1811 29.538 30.113C32.4271 30.0059 34.2042 28.2817 34.2716 25.3953C34.3552 21.7988 34.3552 18.1975 34.2716 14.6007C34.2042 11.7149 32.4259 9.95038 29.538 9.88904C25.8726 9.81153 22.2031 9.81214 18.5377 9.88904C15.6718 9.94916 13.8895 11.678 13.8117 14.532C13.7128 18.174 13.7128 21.8223 13.8117 25.4643C13.8895 28.318 15.6718 30.0068 18.538 30.113C20.3574 30.1808 22.1815 30.1259 24.0034 30.1259Z" fill="white"/>
<path d="M24 13.5933C20.4618 13.5933 17.5931 16.4616 17.5931 19.9998C17.5931 23.5383 20.4618 26.4067 24 26.4067C27.5385 26.4067 30.4069 23.5383 30.4069 19.9998C30.4069 16.4616 27.5385 13.5933 24 13.5933ZM24 24.2009C21.6797 24.2009 19.799 22.3201 19.799 19.9998C19.799 17.6796 21.6797 15.7988 24 15.7988C26.3203 15.7988 28.201 17.6796 28.201 19.9998C28.201 22.3201 26.3203 24.2009 24 24.2009Z" fill="white"/>
<path d="M32.3051 13.3012C32.3051 14.1429 31.6227 14.8253 30.781 14.8253C29.9393 14.8253 29.2567 14.1429 29.2567 13.3012C29.2567 12.4592 29.9393 11.7769 30.781 11.7769C31.6227 11.7769 32.3051 12.4592 32.3051 13.3012Z" fill="white"/>
</g>
<defs>
<filter id="filter0_d" x="0" y="0" width="48" height="48" filterUnits="userSpaceOnUse" color-interpolation-filters="sRGB">
<feFlood flood-opacity="0" result="BackgroundImageFix"/>
<feColorMatrix in="SourceAlpha" type="matrix" values="0 0 0 0 0 0 0 0 0 0 0 0 0 0 0 0 0 0 127 0"/>
<feOffset dy="4"/>
<feGaussianBlur stdDeviation="2"/>
<feColorMatrix type="matrix" values="0 0 0 0 0 0 0 0 0 0 0 0 0 0 0 0 0 0 0.25 0"/>
<feBlend mode="normal" in2="BackgroundImageFix" result="effect1_dropShadow"/>
<feBlend mode="normal" in="SourceGraphic" in2="effect1_dropShadow" result="shape"/>
</filter>
<radialGradient id="paint0_radial" cx="0" cy="0" r="1" gradientUnits="userSpaceOnUse" gradientTransform="translate(12.1998 34.9568) scale(44.113)">
<stop stop-color="#FAE100"/>
<stop offset="0.0544" stop-color="#FADC04"/>
<stop offset="0.1167" stop-color="#FBCE0E"/>
<stop offset="0.1829" stop-color="#FCB720"/>
<stop offset="0.2514" stop-color="#FE9838"/>
<stop offset="0.3054" stop-color="#FF7950"/>
<stop offset="0.4922" stop-color="#FF1C74"/>
<stop offset="1" stop-color="#6C1CD1"/>
</radialGradient>
<linearGradient id="paint1_linear" x1="19.3416" y1="17.3794" x2="-48.4231" y2="-20.7382" gradientUnits="userSpaceOnUse">
<stop stop-color="#A1B5D8" stop-opacity="0"/>
<stop offset="0.3094" stop-color="#90A2BD" stop-opacity="0.309804"/>
<stop offset="0.7554" stop-color="#7C8B9C" stop-opacity="0.756863"/>
<stop offset="1" stop-color="#748290"/>
</linearGradient>
<linearGradient id="paint2_linear" x1="24" y1="35.31" x2="24" y2="41.545" gradientUnits="userSpaceOnUse">
<stop stop-color="#FAE100" stop-opacity="0"/>
<stop offset="0.3068" stop-color="#FCA800" stop-opacity="0.305882"/>
<stop offset="0.6275" stop-color="#FE7300" stop-opacity="0.627451"/>
<stop offset="0.8685" stop-color="#FF5200" stop-opacity="0.866667"/>
<stop offset="1" stop-color="#FF4500"/>
</linearGradient>
<linearGradient id="paint3_linear" x1="21.7244" y1="17.6679" x2="11.8251" y2="7.76858" gradientUnits="userSpaceOnUse">
<stop stop-color="#833AB4" stop-opacity="0"/>
<stop offset="1" stop-color="#833AB4"/>
</linearGradient>
<linearGradient id="paint4_linear" x1="31.414" y1="36.5852" x2="26.4731" y2="13.2922" gradientUnits="userSpaceOnUse">
<stop stop-color="#833AB4" stop-opacity="0"/>
<stop offset="1" stop-color="#833AB4"/>
</linearGradient>
<linearGradient id="paint5_linear" x1="33.2941" y1="29.2943" x2="13.4485" y2="9.44863" gradientUnits="userSpaceOnUse">
<stop stop-color="#833AB4" stop-opacity="0"/>
<stop offset="1" stop-color="#833AB4"/>
</linearGradient>
<linearGradient id="paint6_linear" x1="34.7661" y1="17.2863" x2="28.2036" y2="10.7237" gradientUnits="userSpaceOnUse">
<stop stop-color="#833AB4" stop-opacity="0"/>
<stop offset="1" stop-color="#833AB4"/>
</linearGradient>
<linearGradient id="paint7_linear" x1="31.9421" y1="12.1134" x2="15.7611" y2="28.2943" gradientUnits="userSpaceOnUse">
<stop stop-color="#833AB4"/>
<stop offset="0.0922" stop-color="#9C3495"/>
<stop offset="0.2927" stop-color="#DC2546"/>
<stop offset="0.392" stop-color="#FD1D1D"/>
<stop offset="0.5589" stop-color="#FC6831"/>
<stop offset="0.6887" stop-color="#FC9B40"/>
<stop offset="0.7521" stop-color="#FCAF45"/>
<stop offset="0.7806" stop-color="#FDB750"/>
<stop offset="0.8656" stop-color="#FECB6A"/>
<stop offset="0.9415" stop-color="#FFD87A"/>
<stop offset="1" stop-color="#FFDC80"/>
</linearGradient>
<clipPath id="clip0">
<rect width="40" height="40" fill="white" transform="translate(4)"/>
</clipPath>
</defs>
</svg>
