<svg aria-hidden="true" style="position: absolute; width: 0; height: 0; overflow: hidden;" version="1.1" xmlns="http://www.w3.org/2000/svg" xmlns:xlink="http://www.w3.org/1999/xlink">
<defs>
<symbol id="icon-group" viewBox="0 0 33 32">
<path fill="#ff6b09" style="fill: var(--color1, #ff6b09)" d="M1.993 12.558v2.831c0 0.152 0.070 0.295 0.189 0.39 1.935 1.523 4.363 2.362 6.837 2.362 0.74 0 1.482-0.077 2.206-0.224 1.544 0.683 3.188 1.032 4.89 1.032 1.707 0 3.351-0.349 4.89-1.032 3.091 0.624 6.384-0.046 9.042-2.138 0.12-0.094 0.189-0.238 0.189-0.39v-2.831c0-0.416-0.206-0.794-0.575-1.027l-3.867-2.176c0.846-1.073 1.476-2.602 1.586-3.913 0.321-2.256-1.518-4.646-4.166-4.646-1.113 0-2.171 0.458-2.948 1.227-0.027 0.027-0.058 0.049-0.084 0.076-0.024 0.025-0.043 0.054-0.067 0.080-0.016 0.017-0.029 0.036-0.044 0.053-0.757-1.38-2.211-2.232-3.924-2.232-0.166 0-0.33 0.011-0.492 0.028-0.010-0.001-0.018-0.006-0.028-0.006-0.092 0-0.287 0.024-0.391 0.054-0.015 0.004-0.026 0.015-0.041 0.021-1.279 0.259-2.363 1.034-3.013 2.156-0.781-0.911-1.93-1.457-3.179-1.457-3.908 0-5.642 4.612-2.557 8.581l-3.903 2.167c-0.346 0.219-0.553 0.598-0.553 1.014zM20.996 16.828c-0.084 0.041-0.167 0.085-0.251 0.123l-0 0c-0.001 0-0.001 0.001-0.002 0.001-1.452 0.667-3.009 1.006-4.627 1.006-1.614 0-3.17-0.338-4.629-1.007-0.71-0.323-1.397-0.734-2.045-1.221v-2.87c0-0.098 0.047-0.184 0.102-0.221l4.542-2.524c0.565 0.48 1.287 0.832 2.035 0.832 0.721 0 1.499-0.357 2.052-0.843l4.487 2.52c0.083 0.053 0.13 0.139 0.13 0.237v2.87c-0.571 0.429-1.173 0.795-1.794 1.098zM29.154 12.382c0.059 0.037 0.092 0.101 0.092 0.176v2.587c-1.968 1.477-4.337 2.148-6.737 1.98 0.369-0.23 0.771-0.516 1.083-0.76 0.12-0.094 0.19-0.238 0.19-0.39v-3.114c0-0.435-0.218-0.835-0.61-1.087l-2.383-1.339 0.58-0.321c0.703 0.573 1.307 0.744 1.848 0.744 0.663 0 1.36-0.325 1.878-0.759l4.060 2.284zM23.216 1.788c1.38 0 2.593 0.902 3.021 2.142-0.833-0.099-1.647-0.51-2.237-1.142-0.107-0.114-0.258-0.173-0.415-0.155-0.155 0.016-0.293 0.105-0.373 0.239-0.566 0.948-1.493 1.58-2.548 1.76 0-0.001-0-0.002-0-0.003 0.005-0.216-0.008-0.434-0.033-0.653-0.003-0.022-0.005-0.044-0.007-0.067-0.032-0.248-0.107-0.559-0.122-0.609 0.563-0.902 1.609-1.513 2.713-1.513zM20.556 5.644c1.253-0.137 2.386-0.767 3.164-1.762 0.767 0.629 1.74 1.010 2.702 1.056-0.007 1.792-1.471 4.927-3.206 4.927-1.337 0-2.479-1.912-2.905-3.238 0.108-0.341 0.187-0.669 0.245-0.983zM20.657 9.373l-0.886 0.491-0.895-0.502c0.332-0.413 0.636-0.893 0.896-1.413 0.25 0.526 0.55 1.010 0.884 1.425zM19.32 6.465c-0.478 1.427-1.705 3.49-3.199 3.49-1.742 0-3.226-2.864-3.509-4.696 0.075-0.019 2.43 0.126 4.049-2.001 0.822 0.688 1.932 1.143 3.011 1.188 0.013 0.647-0.144 1.406-0.352 2.018zM16.15 0.992c2.78 0 3.309 2.392 3.352 2.442-1.008-0.102-1.928-0.596-2.563-1.276-0.107-0.114-0.262-0.171-0.416-0.154-0.155 0.017-0.293 0.106-0.373 0.241-0.551 0.932-1.414 1.589-2.414 1.868-0.386 0.108-0.803 0.157-1.166 0.154 0.136-1.822 1.596-3.274 3.58-3.274zM12.461 7.938c0.257 0.515 0.563 1.006 0.913 1.438l-0.875 0.487-0.907-0.51c0.344-0.438 0.636-0.929 0.87-1.415zM9.006 1.788c1.125 0 2.155 0.571 2.729 1.514-0.029 0.1-0.106 0.498-0.117 0.548-0.69-0.165-1.324-0.533-1.821-1.062-0.107-0.114-0.258-0.17-0.416-0.154-0.155 0.017-0.293 0.106-0.372 0.24-0.663 1.119-1.881 1.815-3.177 1.815 0.158-1.627 1.518-2.9 3.174-2.9zM5.876 5.678c1.425-0.014 2.77-0.686 3.643-1.796 0.596 0.491 1.304 0.813 2.055 0.961 0.029 0.575 0.179 1.273 0.35 1.789-0.274 0.84-0.799 1.841-1.451 2.505-0.004 0.004-0.010 0.006-0.014 0.010-0.408 0.43-0.988 0.719-1.444 0.719-1.594 0-2.841-2.508-3.14-4.188zM2.985 12.558c0-0.075 0.033-0.139 0.067-0.162l4.116-2.284c0.247 0.206 0.304 0.229 0.353 0.265l-0 0c0.484 0.322 0.928 0.482 1.534 0.482 0.645 0 1.232-0.273 1.749-0.694 0.029-0.023 0.060-0.045 0.088-0.068l0.587 0.33-2.446 1.361c-0.366 0.236-0.584 0.636-0.584 1.071v3.114c0 0.152 0.070 0.296 0.19 0.39 0.317 0.249 0.727 0.539 1.083 0.761-2.434 0.166-4.803-0.528-6.737-1.98v-2.587z"></path>
<path fill="#ff6b09" style="fill: var(--color1, #ff6b09)" d="M31.259 20.781c-0.61-0.384-1.361-0.423-2.007-0.11l-6.119 2.956c-0.021-1.145-0.956-2.071-2.107-2.071l-3.509 0.001c-1.73-1.504-3.941-2.425-5.952-2.474-1.983-0.047-3.763-0.060-4.593-0.064v-1.002h-6.972v11.517h6.972v-1.379c1.912 1.097 6.939 3.845 9.325 3.845 0.054 0 0.107-0.001 0.158-0.004 4.196-0.235 14.091-7.198 14.743-7.661 0.638-0.37 1.034-1.056 1.034-1.796 0-0.719-0.364-1.376-0.973-1.758zM5.98 28.543h-4.988v-9.533h4.988v9.533zM30.687 23.485c-0.015 0.008-0.030 0.017-0.044 0.028-0.102 0.073-10.281 7.271-14.244 7.494-0.039 0.002-0.079 0.003-0.121 0.003-2.092 0-7.194-2.753-9.307-4.001v-6.997c0.827 0.004 2.597 0.017 4.569 0.064 1.837 0.044 3.876 0.921 5.456 2.346l0.141 0.128 3.887-0.001c0.617 0 1.119 0.502 1.119 1.119s-0.502 1.119-1.119 1.119h-7.142v0.992h7.142c0.684 0 1.288-0.333 1.674-0.839l6.984-3.373c0.343-0.167 0.725-0.146 1.049 0.057s0.508 0.537 0.508 0.918c0 0.391-0.212 0.753-0.553 0.945z"></path>
<path fill="#ff6b09" style="fill: var(--color1, #ff6b09)" d="M16.612 12.158h-0.992v0.92h0.992v-0.92z"></path>
<path fill="#ff6b09" style="fill: var(--color1, #ff6b09)" d="M16.612 13.992h-0.992v0.92h0.992v-0.92z"></path>
<path fill="#ff6b09" style="fill: var(--color1, #ff6b09)" d="M16.612 15.826h-0.992v0.92h0.992v-0.92z"></path>
</symbol>
<symbol id="icon-noun_audio_book" viewBox="0 0 39 32">
<path fill="#ff6b09" style="fill: var(--color1, #ff6b09)" d="M3.048 29.453h12.23c0.62 1.285 1.917 2.116 3.38 2.116h0.772c1.465 0 2.761-0.83 3.381-2.116h12.237c1.26 0 2.286-1.025 2.286-2.286v-21.905c0-1.26-1.025-2.286-2.286-2.286h-1.234v-1.021c0-0.84-0.684-1.524-1.524-1.524h-26.491c-0.84 0-1.524 0.683-1.524 1.524v1.021h-1.227c-1.26 0-2.286 1.025-2.286 2.286v21.905c0 1.26 1.025 2.286 2.286 2.286zM32.288 24.752h-12.478v-17.705c2.884 0.377 5.121 2.845 5.121 5.831v0.687l-0.181-0.040c-0.196-0.042-0.403-0.007-0.574 0.102s-0.291 0.281-0.334 0.478l-1.213 5.519c-0.090 0.41 0.17 0.816 0.58 0.907l2.621 0.578c0.135 0.029 0.273 0.043 0.411 0.043 0.922 0 1.707-0.631 1.908-1.535l0.702-3.192c0.231-1.048-0.433-2.090-1.484-2.324l-0.912-0.201v-1.023c0-3.827-2.917-6.986-6.644-7.37v-3.551h12.48l-0.001 22.796zM25.166 15.177l1.871 0.412c0.234 0.052 0.376 0.275 0.325 0.508l-0.702 3.191c-0.051 0.231-0.306 0.374-0.507 0.331l-1.874-0.413 0.886-4.030zM5.798 1.956h12.487v3.55c-3.731 0.381-6.652 3.541-6.652 7.371v1.022l-0.914 0.202c-0.509 0.113-0.943 0.416-1.222 0.854-0.28 0.439-0.373 0.961-0.26 1.468l0.7 3.188c0.19 0.892 0.993 1.54 1.909 1.54 0.138 0 0.275-0.015 0.416-0.045l2.61-0.577c0.41-0.091 0.67-0.496 0.58-0.907l-1.213-5.519c-0.043-0.198-0.164-0.37-0.334-0.478s-0.378-0.144-0.574-0.102l-0.174 0.038v-0.686c0-2.988 2.24-5.458 5.128-5.832v17.706h-12.487v-22.796zM12.916 15.177l0.887 4.029-1.863 0.411c-0.229 0.052-0.463-0.1-0.512-0.328l-0.702-3.196c-0.025-0.111-0.005-0.224 0.055-0.319 0.061-0.096 0.157-0.162 0.268-0.187l1.867-0.412zM2.286 5.262c0-0.42 0.341-0.762 0.762-0.762h1.227v20.252c0 0.84 0.684 1.524 1.524 1.524h26.491c0.84 0 1.524-0.683 1.524-1.524v-20.252h1.234c0.42 0 0.762 0.342 0.762 0.762v21.905c0 0.42-0.342 0.762-0.762 0.762h-12.754c-0.335 0-0.63 0.218-0.728 0.538-0.289 0.943-1.147 1.577-2.135 1.577h-0.772c-0.984 0-1.841-0.631-2.138-1.586-0.101-0.315-0.394-0.529-0.725-0.529h-12.747c-0.42 0-0.762-0.342-0.762-0.762v-21.905z"></path>
</symbol>
<symbol id="icon-noun_female_student" viewBox="0 0 27 32">
<path fill="#ff6b09" style="fill: var(--color1, #ff6b09)" d="M-0.1 31.374c3.357 0 22.778 0 26.131 0 0.129-2.98-0.084-7.924-1.916-10.278l-0.066-0.085-4.004-2.010c0.087-0.293 0.13-0.562 0.147-0.759 0.020-0.237-0.013-0.46-0.097-0.661-0.661-1.581-2.058-2.412-2.827-2.767 0.234-0.472 0.385-0.979 0.458-1.497 0.435-0.123 0.785-0.467 0.9-0.928l0.467-1.899c0.083-0.335 0.031-0.682-0.147-0.978-0.077-0.127-0.176-0.235-0.287-0.326 1.318-2.993-0.889-5.815-1.009-5.963-2.39-2.584-5.409-2.101-5.569-2.072-4.357 0.912-6.039 4.252-5.089 8.168-0.281 0.312-0.399 0.746-0.295 1.171l0.47 1.901c0.114 0.457 0.461 0.8 0.893 0.925 0.133 0.948 0.535 1.806 1.124 2.497v1.505c-6.253 3.202-2.291 1.159-7.302 3.694-0.010 0.047-2.351 2.536-2.003 9.911l0.021 0.451zM25.123 30.428h-4.301v-1.807l2.845-6.512c1.425 2.365 1.478 6.881 1.456 8.318zM19.254 18.162c-0.166 1.907-1.211 1.33-1.857 2.799-0.508-0.558-0.66-1.228-0.524-1.944 0.246-1.316-0.556-1.706-0.358-3.089l0.030-0.032v-0.004c0.017-0.019 0.175-0.208 0.221-0.267 1.702 0.742 2.521 2.121 2.488 2.537zM10.125 16.664c0.79 0.548 1.743 0.872 2.769 0.872 0.966 0 1.883-0.281 2.67-0.799 0.109 1.087 0.534 1.304 0.383 2.104-0.028 0.148-0.044 0.295-0.053 0.439l-2.929 3.301-3.744-4.221 0.904-0.472v-1.224zM8.948 12.624v-1.83c0-0.674 0-3.348 0-3.216 0.456-0.843 1.077-1.454 1.85-1.821 2.068 1.17 4.449 2.917 6.046 4.675-0.002 2.239 0.006 2.245-0.009 2.428l-0.001 0.012c-0.125 2.033-1.796 3.718-3.939 3.718-2.084 0-3.814-1.636-3.939-3.738-0.006-0.075-0.008-0.151-0.008-0.228zM8.365 18.816l4.601 5.187 3.089-3.481c0.071 0.203 0.17 0.395 0.283 0.581l-3.372 4.217-5.028-6.289 0.427-0.214zM17.785 11.863v-1.461c0.041-0.047 0.393-0.45 0.351-0.403 0.019 0.74 0.099-0.133-0.351 1.864zM12.255 2.082c0.187 0.012 2.698-0.382 4.682 1.76 0.078 0.098 1.693 2.179 1.045 4.456-0.222-1.013-0.609-2.311-1.221-2.931l-0.669 0.666c0.604 0.612 1.001 2.475 1.152 3.441-2.771-2.9-6.346-4.735-6.395-4.766-0.179 0.112-1.692 0.399-2.791 2.534l-0.052 0.102v1.568c-0.047 0.001-0.186 0.002-0.138 0.001-0.698-3.37 0.639-6.047 4.388-6.833zM7.768 9.888l0.238 0.963v1.012l-0.395-1.599c-0.058-0.238 0.119-0.329 0.157-0.376zM7.075 19.463l5.89 7.367 3.985-4.984c0.434 0.388 0.642 0.443 1.561 0.916l-0.31-1.052c-0.079-0.267 0.233-0.695 0.421-0.892 0.42-0.228 0.77-0.553 1.032-0.954l3.252 1.633-3.026 6.927v2.005h-13.83v-2.005l-3.027-6.926 4.052-2.034zM2.264 22.112l2.845 6.51v1.806h-4.301c-0.022-1.437 0.032-5.95 1.456-8.316z"></path>
</symbol>
<symbol id="icon-noun_mobile_learning" viewBox="0 0 32 32">
<path fill="#ff6b09" style="fill: var(--color1, #ff6b09)" d="M29.457 0.256h-15.371c-1.001 0-1.815 0.814-1.815 1.815v6.363l-11.419 4.793c-0.129 0.054-0.217 0.176-0.227 0.316s0.059 0.274 0.18 0.346l1.456 0.872v9.288c-0.745 0.17-1.304 0.836-1.304 1.634v0.895c0 0.205 0.167 0.372 0.372 0.372h2.608c0.205 0 0.372-0.167 0.372-0.372v-0.895c0-0.796-0.559-1.462-1.304-1.633v-8.844l1.151 0.689c-0.035 0.266-0.004-0.463-0.016 4.324 0 1.574 4.031 2.417 8.132 2.465v7.249c0 0.374 0.115 0.723 0.311 1.012 0.326 0.482 0.878 0.8 1.503 0.8h15.371c1 0 1.813-0.814 1.813-1.813 0 0.050-0.002-1.535 0-27.86 0-0.987-0.816-1.815-1.812-1.815zM3.565 25.682v0.523h-1.864v-0.523c0-0.515 0.417-0.935 0.93-0.935 0.515 0 0.934 0.419 0.934 0.935zM29.457 30.998h-15.371c-0.369 0-0.695-0.187-0.887-0.47-0.115-0.171-0.183-0.376-0.183-0.597v-2.513h17.508v2.514c0 0.582-0.485 1.066-1.066 1.066zM30.523 26.675h-17.508v-3.989c2.002-0.023 8.137-0.464 8.137-2.467-0.002-3.007 0.005-4.227-0.009-4.33l3.339-2c0.12-0.072 0.19-0.206 0.18-0.346s-0.098-0.262-0.227-0.316l-11.419-4.793v-3.106h17.508v21.347zM12.643 17.75c-2.063 0-6.034 0.266-7.76 1.393 0.011-3.446-0.12-3.222 0.305-3.514 1.072-0.789 4.137-1.34 7.455-1.34 1.447 0 7.765 0.398 7.765 1.735v3.119c-1.742-1.137-5.693-1.394-7.765-1.394zM13.015 2.071c0-0.59 0.48-1.069 1.069-1.069h15.371c0.59 0 1.067 0.486 1.067 1.069v2.513h-17.508v-2.513zM12.643 9.084l10.826 4.544-2.683 1.605c-1.426-1.414-6.144-1.689-8.143-1.689-2.002 0-6.72 0.275-8.143 1.689l-2.683-1.606 10.827-4.544zM4.883 20.219c0-0.602 2.665-1.725 7.76-1.725 5.098 0 7.765 1.123 7.765 1.725s-2.667 1.726-7.765 1.726c-5.095 0-7.76-1.123-7.76-1.726z"></path>
<path fill="#ff6b09" style="fill: var(--color1, #ff6b09)" d="M21.77 27.979c-0.678 0-1.23 0.551-1.23 1.23s0.552 1.23 1.23 1.23c0.678 0 1.23-0.552 1.23-1.23s-0.552-1.23-1.23-1.23zM21.77 29.696c-0.268 0-0.486-0.218-0.486-0.487s0.218-0.486 0.486-0.486c0.268 0 0.486 0.218 0.486 0.486s-0.218 0.487-0.486 0.487z"></path>
<path fill="#ff6b09" style="fill: var(--color1, #ff6b09)" d="M23.189 2.421h-2.837v0.744h2.837v-0.744z"></path>
</symbol>
<symbol id="icon-noun_open_book" viewBox="0 0 46 32">
<path fill="#fff" style="fill: var(--color2, #fff)" d="M20.267 4.608h-13.64v1.021h13.64v-1.021z"></path>
<path fill="#fff" style="fill: var(--color2, #fff)" d="M20.267 8.416h-11.597v1.021h11.597v-1.021z"></path>
<path fill="#fff" style="fill: var(--color2, #fff)" d="M20.267 12.224h-13.64v1.021h13.64v-1.021z"></path>
<path fill="#fff" style="fill: var(--color2, #fff)" d="M20.267 16.032h-11.597v1.021h11.597v-1.021z"></path>
<path fill="#fff" style="fill: var(--color2, #fff)" d="M20.267 19.84h-13.64v1.021h13.64v-1.021z"></path>
<path fill="#fff" style="fill: var(--color2, #fff)" d="M20.267 23.648h-11.597v1.021h11.597v-1.021z"></path>
<path fill="#fff" style="fill: var(--color2, #fff)" d="M38.99 4.608h-13.64v1.021h13.64v-1.021z"></path>
<path fill="#fff" style="fill: var(--color2, #fff)" d="M36.947 8.416h-11.597v1.021h11.597v-1.021z"></path>
<path fill="#fff" style="fill: var(--color2, #fff)" d="M38.99 12.224h-13.64v1.021h13.64v-1.021z"></path>
<path fill="#fff" style="fill: var(--color2, #fff)" d="M36.947 16.032h-11.597v1.021h11.597v-1.021z"></path>
<path fill="#fff" style="fill: var(--color2, #fff)" d="M38.99 19.84h-13.64v1.021h13.64v-1.021z"></path>
<path fill="#fff" style="fill: var(--color2, #fff)" d="M36.947 23.648h-11.597v1.021h11.597v-1.021z"></path>
<path fill="#fff" style="fill: var(--color2, #fff)" d="M43.915 3.445h-1.872v-2.812c0-0.282-0.229-0.511-0.511-0.511h-15.265c-1.49 0-2.781 0.805-3.458 2.011-0.678-1.206-1.97-2.011-3.459-2.011h-15.265c-0.282 0-0.511 0.229-0.511 0.511v2.812h-1.872c-0.282 0-0.511 0.229-0.511 0.511v27.411c0 0.282 0.229 0.511 0.511 0.511 5.127 0 37.068 0 42.213 0 0.282 0 0.511-0.229 0.511-0.511v-27.411c0-0.282-0.229-0.511-0.511-0.511zM26.267 1.144h14.754c0 4.573 0 16.619 0 27.35h-15.843c-0.702 0-1.405 0.296-1.859 0.68v-25.089c0-1.63 1.305-2.942 2.948-2.942zM4.596 1.144h14.754c1.597 0 2.889 1.243 2.942 2.829 0.001 0.022 0.003 0.091 0.006 0.112v25.087c-0.453-0.383-1.148-0.678-1.852-0.678h-15.85c0-10.728 0-22.779 0-27.35zM2.213 4.467h1.362v24.538c0 0.282 0.229 0.511 0.511 0.511h16.361c0.778 0 1.531 0.511 1.771 1.341h-20.005v-26.39zM43.404 30.856h-20.004c0.242-0.834 0.987-1.341 1.778-1.341h16.354c0.282 0 0.511-0.229 0.511-0.511v-24.538h1.362v26.39z"></path>
</symbol>
<symbol id="icon-noun_study-program" viewBox="0 0 31 32">
<path fill="#ff6b09" style="fill: var(--color1, #ff6b09)" d="M30.151 4.961c0-0.001-0.001-0.001-0.001-0.002-0.007-0.016-0.015-0.031-0.024-0.045-0.001-0.001-0.002-0.002-0.002-0.003-0.010-0.015-0.021-0.029-0.034-0.042l-4.806-4.806c-0.013-0.013-0.026-0.023-0.041-0.033-0.003-0.002-0.006-0.004-0.009-0.006-0.012-0.007-0.024-0.014-0.036-0.019-0.004-0.002-0.007-0.003-0.011-0.005-0.031-0.013-0.065-0.019-0.099-0.020-0.002 0-0.004-0-0.005-0h-21.171c-0.157 0-0.284 0.127-0.284 0.284v29.311c0 0.019 0.002 0.037 0.006 0.056 0.002 0.008 0.005 0.015 0.007 0.023 0.003 0.010 0.006 0.020 0.009 0.030 0.004 0.009 0.009 0.017 0.014 0.026 0.004 0.007 0.008 0.016 0.013 0.023 0.010 0.014 0.021 0.028 0.033 0.040 0.001 0.001 0.001 0.002 0.003 0.003l2.165 2.164c0.111 0.111 0.29 0.111 0.402 0l1.964-1.963 1.964 1.963c0.055 0.056 0.128 0.083 0.201 0.083s0.145-0.027 0.201-0.083l1.963-1.963 1.965 1.963c0.111 0.111 0.291 0.111 0.402 0l1.963-1.963 1.963 1.963c0.111 0.111 0.291 0.111 0.401 0l1.965-1.963 1.964 1.963c0.055 0.056 0.128 0.083 0.201 0.083s0.145-0.027 0.201-0.083l1.963-1.963 1.965 1.963c0.111 0.111 0.291 0.111 0.401 0l2.165-2.164c0.004-0.004 0.007-0.009 0.011-0.014 0.008-0.009 0.017-0.019 0.024-0.029 0.007-0.009 0.011-0.020 0.016-0.030 0.003-0.007 0.007-0.012 0.009-0.019 0.006-0.013 0.009-0.026 0.012-0.039 0.001-0.005 0.003-0.009 0.005-0.013 0.004-0.020 0.006-0.038 0.006-0.058v-24.503c-0.001-0.037-0.008-0.074-0.023-0.109zM25.367 0.949l3.836 3.835h-3.836v-3.835zM29.604 29.456l-1.88 1.88-1.965-1.963c-0.111-0.111-0.29-0.111-0.401 0l-1.963 1.963-1.964-1.963c-0.111-0.111-0.291-0.111-0.402 0l-1.965 1.963-1.963-1.962c0-0-0-0.001-0-0.001-0.055-0.055-0.128-0.083-0.201-0.083s-0.145 0.028-0.201 0.083c-0 0-0 0-0 0l-1.963 1.963-1.965-1.963c-0.111-0.111-0.29-0.111-0.402 0l-1.963 1.963-1.964-1.963c-0.111-0.111-0.29-0.111-0.402 0l-1.965 1.963-1.88-1.88v-28.909h20.603v4.522c0 0.157 0.127 0.284 0.284 0.284h4.521l0 24.103z"></path>
<path fill="#ff6b09" style="fill: var(--color1, #ff6b09)" d="M6.314 3.234h9.303c0.157 0 0.284-0.127 0.284-0.284s-0.127-0.284-0.284-0.284h-9.303c-0.157 0-0.284 0.127-0.284 0.284s0.127 0.284 0.284 0.284z"></path>
<path fill="#ff6b09" style="fill: var(--color1, #ff6b09)" d="M6.314 4.991h14.919c0.157 0 0.284-0.127 0.284-0.284s-0.127-0.284-0.284-0.284h-14.919c-0.157 0-0.284 0.127-0.284 0.284s0.127 0.284 0.284 0.284z"></path>
<path fill="#ff6b09" style="fill: var(--color1, #ff6b09)" d="M6.030 6.568v9.199c0 0.157 0.127 0.284 0.284 0.284h21.172c0.157 0 0.284-0.127 0.284-0.284v-9.199c0-0.157-0.127-0.284-0.284-0.284h-21.172c-0.157 0-0.284 0.127-0.284 0.284zM12.308 6.852h14.893v2.445h-14.893v-2.445zM12.308 9.865h14.893v2.444h-14.893v-2.444zM12.308 12.877h14.893v2.605h-14.893v-2.605zM6.598 6.852h5.142v2.445h-5.142v-2.445zM6.598 9.865h5.142v2.444h-5.142v-2.444zM6.598 12.877h5.142v2.605h-5.142v-2.605z"></path>
<path fill="#ff6b09" style="fill: var(--color1, #ff6b09)" d="M27.486 17.329h-21.172c-0.157 0-0.284 0.127-0.284 0.284v9.198c0 0.157 0.127 0.284 0.284 0.284s0.284-0.127 0.284-0.284v-2.889h5.142v2.889c0 0.157 0.127 0.284 0.284 0.284s0.284-0.127 0.284-0.284v-2.889h14.893v2.889c0 0.157 0.127 0.284 0.284 0.284s0.284-0.127 0.284-0.284v-9.198c0.001-0.157-0.126-0.284-0.283-0.284zM11.74 23.354h-5.142v-2.443h5.142v2.443zM11.74 20.342h-5.142v-2.444h5.142v2.444zM27.201 23.354h-14.893v-2.443h14.893v2.443zM27.201 20.342h-14.893v-2.444h14.893v2.444z"></path>
<path fill="#ff6b09" style="fill: var(--color1, #ff6b09)" d="M2.281-0.021c-0.157 0-0.284 0.127-0.284 0.284v29.311c0 0.157 0.127 0.284 0.284 0.284s0.284-0.127 0.284-0.284v-29.311c0-0.157-0.127-0.284-0.284-0.284z"></path>
<path fill="#ff6b09" style="fill: var(--color1, #ff6b09)" d="M0.718-0.021c-0.157 0-0.284 0.127-0.284 0.284v29.311c0 0.157 0.127 0.284 0.284 0.284s0.284-0.127 0.284-0.284v-29.311c0-0.157-0.127-0.284-0.284-0.284z"></path>
</symbol>
<symbol id="icon-vk" viewBox="0 0 32 32">
<path fill="#436eab" style="fill: var(--color3, #436eab)" d="M27.541 18.46c1.061 1.036 2.182 2.011 3.134 3.152 0.421 0.507 0.819 1.030 1.123 1.619 0.432 0.836 0.041 1.757-0.709 1.807l-4.662-0.002c-1.202 0.1-2.162-0.384-2.968-1.206-0.645-0.657-1.243-1.357-1.864-2.037-0.255-0.278-0.521-0.539-0.839-0.746-0.636-0.413-1.189-0.287-1.552 0.377-0.37 0.675-0.454 1.423-0.491 2.175-0.050 1.098-0.382 1.386-1.484 1.437-2.357 0.111-4.593-0.245-6.671-1.434-1.832-1.048-3.252-2.528-4.489-4.203-2.407-3.261-4.25-6.845-5.907-10.53-0.373-0.83-0.1-1.276 0.816-1.291 1.521-0.030 3.041-0.027 4.564-0.002 0.618 0.009 1.027 0.364 1.266 0.947 0.823 2.023 1.83 3.948 3.093 5.732 0.337 0.475 0.68 0.95 1.168 1.284 0.541 0.37 0.952 0.248 1.207-0.355 0.161-0.382 0.232-0.793 0.268-1.202 0.121-1.407 0.136-2.812-0.075-4.214-0.13-0.875-0.623-1.442-1.496-1.607-0.446-0.084-0.379-0.25-0.164-0.505 0.375-0.439 0.727-0.712 1.43-0.712h5.269c0.829 0.164 1.014 0.536 1.127 1.371l0.004 5.852c-0.009 0.323 0.161 1.282 0.743 1.496 0.466 0.152 0.773-0.22 1.052-0.516 1.261-1.339 2.162-2.921 2.966-4.559 0.357-0.72 0.664-1.469 0.961-2.216 0.22-0.555 0.566-0.828 1.191-0.816l5.071 0.005c0.15 0 0.302 0.002 0.448 0.027 0.855 0.146 1.089 0.513 0.825 1.348-0.416 1.309-1.225 2.4-2.016 3.496-0.846 1.17-1.75 2.3-2.589 3.477-0.77 1.075-0.709 1.617 0.248 2.55z"></path>
</symbol>
</defs>
</svg>
